<?xml version="1.0" encoding="UTF-8"?>
<svg version="1.1" xmlns="http://www.w3.org/2000/svg" width="512" height="512">
<path d="M0 0 C1.46354361 1.71870088 2.70925226 3.5502552 4 5.40234375 C6.60355402 8.78391294 9.49951265 11.78325938 12.5 14.8125 C13.04591797 15.37549805 13.59183594 15.93849609 14.15429688 16.51855469 C19.10954535 21.47082882 23.65303017 24.42337433 30.875 24.5 C31.84179688 24.5309375 32.80859375 24.561875 33.8046875 24.59375 C41.49177223 23.16534306 46.97133684 17.48714389 52.25 12.0625 C52.848125 11.46759766 53.44625 10.87269531 54.0625 10.25976562 C57.5446489 6.73524545 60.39865024 3.21753488 63 -1 C91.1374002 1.2235556 118.70240721 11.61235548 143.0625 25.5625 C143.82377197 25.99723633 144.58504395 26.43197266 145.36938477 26.87988281 C147.61685452 28.20270603 149.81417126 29.57770593 152 31 C153.18468872 31.76872437 153.18468872 31.76872437 154.39331055 32.55297852 C160.42043589 36.80490238 163.10256128 40.97817422 165.6875 47.8125 C166.0577832 48.73611328 166.42806641 49.65972656 166.80957031 50.61132812 C167.90921617 53.39531424 168.96283254 56.19220697 170 59 C170.29535645 59.78938965 170.59071289 60.5787793 170.89501953 61.39208984 C180.76836961 88.16954724 185.21141401 116.41132605 185.13037109 144.88232422 C185.12499126 147.12864881 185.13036078 149.37477502 185.13671875 151.62109375 C185.14049018 154.48354836 185.1180123 157.34357474 185.06665039 160.20556641 C185.02654565 162.48874541 185.01426468 164.77300984 185.05639648 167.05615234 C184.98417636 170.63356778 184.84698112 172.99815016 182.49121094 175.78466797 C180.35696328 177.53149523 178.17501504 178.95229194 175.8125 180.375 C174.96751953 180.91535889 174.12253906 181.45571777 173.25195312 182.01245117 C170.52844156 183.72510562 167.77442398 185.37125049 165 187 C164.0929834 187.5347998 163.1859668 188.06959961 162.25146484 188.62060547 C149.9316757 195.78940097 137.31027063 201.91019768 124 207 C123.20029785 207.30728027 122.4005957 207.61456055 121.57666016 207.93115234 C119.2236827 208.8253877 116.86461541 209.69955346 114.5 210.5625 C113.78739014 210.82659668 113.07478027 211.09069336 112.34057617 211.36279297 C107.35675915 213.11891972 107.35675915 213.11891972 104 212 C102.2808637 209.76009264 100.72004145 207.5498073 99.1875 205.1875 C98.52645264 204.18384399 98.52645264 204.18384399 97.85205078 203.15991211 C94.0754795 197.32622349 90.89584278 191.32141291 88 185 C88.57967529 184.74307373 89.15935059 184.48614746 89.7565918 184.22143555 C92.40172295 183.0467911 95.04461765 181.86719489 97.6875 180.6875 C98.59951172 180.28337891 99.51152344 179.87925781 100.45117188 179.46289062 C104.79126645 177.52168469 109.00296894 175.60017389 113 173 C111.8354799 171.33378575 111.8354799 171.33378575 110 170 C105.87460482 170.45110141 102.4041341 172.04007427 98.625 173.6875 C57.980521 190.50891421 7.83900591 191.56933685 -33.08984375 175.01953125 C-35.33759912 174.08165231 -37.56408489 173.11961631 -39.77441406 172.09667969 C-43.4070802 170.42674547 -43.4070802 170.42674547 -47.33203125 170.18359375 C-49.20455119 170.98838567 -49.20455119 170.98838567 -51 173 C-38.62534696 179.26408461 -38.62534696 179.26408461 -26 185 C-30.56018555 195.15940072 -36.55540782 203.96381025 -43 213 C-59.50074338 209.18028711 -75.10536584 201.93239137 -90 194 C-90.72960937 193.61585938 -91.45921875 193.23171875 -92.2109375 192.8359375 C-100.34903717 188.53079945 -108.38117457 184.02034734 -116.0625 178.9375 C-116.65240723 178.57479004 -117.24231445 178.21208008 -117.85009766 177.83837891 C-120.1480753 176.24715213 -121.80151672 174.83960484 -122.4584198 172.06083679 C-122.52007828 171.33266251 -122.58173676 170.60448822 -122.64526367 169.85424805 C-122.71378036 169.05328201 -122.78229706 168.25231598 -122.85289001 167.42707825 C-123.07143838 163.82138163 -123.18081639 160.22921417 -123.203125 156.6171875 C-123.21013931 155.84867966 -123.21715363 155.08017181 -123.22438049 154.28837585 C-123.24179537 151.81719019 -123.24823468 149.34624482 -123.25 146.875 C-123.25067474 146.02718964 -123.25134949 145.17937927 -123.25204468 144.30587769 C-123.23483105 130.66641316 -122.56690068 117.42762233 -120 104 C-119.81775879 103.03578125 -119.63551758 102.0715625 -119.44775391 101.078125 C-117.06913414 88.80548034 -114.13935494 76.80120883 -110 65 C-109.58548584 63.81567383 -109.58548584 63.81567383 -109.16259766 62.60742188 C-108.26571653 60.06732114 -107.35544323 57.53256172 -106.4375 55 C-106.15664551 54.22237305 -105.87579102 53.44474609 -105.58642578 52.64355469 C-102.18784371 43.46876543 -99.43166069 37.32458083 -91 32 C-89.97132813 31.33355469 -88.94265625 30.66710937 -87.8828125 29.98046875 C-69.5544104 18.38969052 -22.13856508 -9.40889016 0 0 Z M-42.52734375 79.859375 C-48.46953657 88.49683299 -49.00850302 96.7708979 -48 107 C-45.99389968 115.6780744 -41.24952899 122.08528041 -33.8125 126.875 C-27.72800454 130.49929513 -21.9603012 130.72998281 -15 130 C-6.69755088 127.49050267 -0.84933715 122.2035151 3.28125 114.66015625 C7.43388756 105.74681634 8.2067844 96.64793802 5.0625 87.17578125 C1.31558631 79.12731204 -4.10662194 72.94107475 -12.484375 69.6640625 C-24.45024255 66.50537075 -34.94965304 70.18572729 -42.52734375 79.859375 Z M60 81 C55.37391068 89.20848776 53.68971599 97.71960564 55.75 107 C58.19755038 115.62550514 62.41021758 122.4178899 70.06640625 127.32421875 C77.07173588 130.89580899 84.68635428 131.29080062 92.1875 128.9375 C100.8779041 125.0909277 105.49825311 118.59656318 109 110 C111.64286178 102.07141465 110.96020532 91.80437963 107.38671875 84.28125 C103.43851051 77.78616941 98.74176189 72.29330132 91.48046875 69.59375 C79.00559158 66.60763767 67.70197685 70.71704155 60 81 Z " fill="#000000" transform="translate(225,168)"/>
<path d="M0 0 C3.35927769 1.11975923 3.80914756 1.73602602 5.79296875 4.515625 C6.33276367 5.26175049 6.87255859 6.00787598 7.42871094 6.77661133 C8.00911133 7.59282959 8.58951172 8.40904785 9.1875 9.25 C10.44492476 10.98950401 11.70410636 12.72773913 12.96484375 14.46484375 C13.62339355 15.37347168 14.28194336 16.28209961 14.96044922 17.21826172 C18.32145811 21.80233346 21.78775343 26.30470519 25.25 30.8125 C31.33820398 38.75869246 37.26417468 46.79611523 43 55 C46.22548153 53.59321194 48.25616875 51.93721445 50.64453125 49.3671875 C51.32193359 48.64273438 51.99933594 47.91828125 52.69726562 47.171875 C53.39529297 46.41390625 54.09332031 45.6559375 54.8125 44.875 C55.49892578 44.14023438 56.18535156 43.40546875 56.89257812 42.6484375 C60.83336306 38.41311897 64.68647469 34.11278662 68.46362305 29.73095703 C71.37837022 26.44706104 71.37837022 26.44706104 73 25 C73.66 25 74.32 25 75 25 C92.24463876 60.47677202 92.24463876 60.47677202 100 77 C105.68035399 73.91810581 110.80920016 70.3408435 116 66.5 C117.53913001 65.36114709 119.08076149 64.22566632 120.625 63.09375 C121.29789063 62.59552734 121.97078125 62.09730469 122.6640625 61.58398438 C125.66527905 59.5488785 128.85162098 57.79907373 132 56 C132 77.78 132 99.56 132 122 C128.72418731 120.68967492 126.22095464 119.65075745 123.3203125 117.86328125 C122.64693848 117.45440674 121.97356445 117.04553223 121.27978516 116.62426758 C120.56870605 116.19138428 119.85762695 115.75850098 119.125 115.3125 C96.0515413 101.55802564 67.07619462 89.61916762 40.19921875 86.6953125 C33.81898411 85.92023214 33.81898411 85.92023214 31.578125 83.40234375 C30.68122763 81.92135581 29.80995153 80.42471265 28.95703125 78.91796875 C26.24052713 74.8676123 22.94053931 71.56553931 19.5 68.125 C18.85844971 67.47055908 18.21689941 66.81611816 17.5559082 66.1418457 C12.74531875 61.37082414 8.21083769 57.59292902 1.125 57.5 C0.34382812 57.4690625 -0.43734375 57.438125 -1.2421875 57.40625 C-8.58821641 58.9878313 -14.08676289 64.60940696 -19.1875 69.8125 C-19.77724609 70.39064453 -20.36699219 70.96878906 -20.97460938 71.56445312 C-24.02748517 74.63770406 -26.43265447 77.57364986 -28.58203125 81.34375 C-30.19149055 84.03550483 -30.69728235 84.85274428 -33.59375 86.26171875 C-34.5528125 86.40222656 -35.511875 86.54273438 -36.5 86.6875 C-38.22089844 86.996875 -38.22089844 86.996875 -39.9765625 87.3125 C-40.6149707 87.41820312 -41.25337891 87.52390625 -41.91113281 87.6328125 C-57.77770499 90.42188737 -72.94221987 95.37818406 -88 101 C-89.13824219 101.42023438 -90.27648437 101.84046875 -91.44921875 102.2734375 C-103.5877423 107.04758484 -115.95052499 113.35229386 -126.50390625 121.0390625 C-128 122 -128 122 -130 122 C-130.33 100.22 -130.66 78.44 -131 56 C-127.38590502 57.44563799 -125.14983292 58.41234673 -122.14453125 60.57421875 C-121.0935022 61.32396973 -121.0935022 61.32396973 -120.02124023 62.08886719 C-119.29235596 62.61641602 -118.56347168 63.14396484 -117.8125 63.6875 C-116.29957703 64.76966808 -114.78655651 65.8516998 -113.2734375 66.93359375 C-112.54350586 67.45808105 -111.81357422 67.98256836 -111.06152344 68.52294922 C-108.36782149 70.45294647 -105.65514578 72.35387751 -102.9375 74.25 C-102.16277344 74.79140625 -101.38804687 75.3328125 -100.58984375 75.890625 C-100.06519531 76.25671875 -99.54054687 76.6228125 -99 77 C-96.31824188 73.70711873 -94.54282694 70.24770095 -92.70703125 66.42578125 C-92.2457785 65.4697702 -92.2457785 65.4697702 -91.77520752 64.4944458 C-90.78337241 62.43581748 -89.79781366 60.37425649 -88.8125 58.3125 C-88.13564088 56.90406859 -87.45847562 55.49578427 -86.78100586 54.08764648 C-82.13379108 44.41714296 -77.52457229 34.72855321 -73 25 C-69.80836144 26.39647893 -67.78865914 28.01603206 -65.42578125 30.5625 C-64.76223633 31.272854 -64.09869141 31.98320801 -63.41503906 32.71508789 C-62.72120117 33.46910889 -62.02736328 34.22312988 -61.3125 35 C-60.59932617 35.76368896 -59.88615234 36.52737793 -59.15136719 37.31420898 C-56.07881409 40.61486317 -53.03161614 43.92958677 -50.08984375 47.34765625 C-49.31769531 48.24355469 -48.54554688 49.13945313 -47.75 50.0625 C-47.10546875 50.83722656 -46.4609375 51.61195312 -45.796875 52.41015625 C-43.90058409 54.44176276 -43.90058409 54.44176276 -40 54 C-38.37961746 52.13153564 -37.08981174 50.37168323 -35.75 48.3125 C-34.868206 47.01835751 -33.98252794 45.72685613 -33.09375 44.4375 C-32.60519531 43.72722656 -32.11664063 43.01695313 -31.61328125 42.28515625 C-28.61370197 38.03635751 -25.42074885 33.93416993 -22.25 29.8125 C-14.70394483 19.96880237 -7.31898165 10.01335108 0 0 Z " fill="#000000" transform="translate(255,71)"/>
<path d="M0 0 C4.73234208 1.94661307 8.03368906 5.86812758 11.47802734 9.52685547 C12.29207031 10.34347656 13.10611328 11.16009766 13.94482422 12.00146484 C20.61891521 18.87594556 20.61891521 18.87594556 21.04052734 23.83935547 C19.04310593 29.57005261 14.98852817 33.44153174 10.79052734 37.65185547 C10.14728516 38.33183594 9.50404297 39.01181641 8.84130859 39.71240234 C5.75859402 42.82302882 3.64120679 44.63977907 -0.56884766 46.03857422 C-7.39891919 45.63726817 -11.67179772 40.42284174 -16.20947266 35.77685547 C-17.00224609 34.98311523 -17.00224609 34.98311523 -17.81103516 34.17333984 C-23.70966722 28.20733762 -23.70966722 28.20733762 -24.61572266 23.24560547 C-24.44468064 17.0196759 -19.680871 13.40195512 -15.45947266 9.33935547 C-14.66798828 8.51693359 -13.87650391 7.69451172 -13.06103516 6.84716797 C-5.4585873 -0.65557565 -5.4585873 -0.65557565 0 0 Z " fill="#000000" transform="translate(257.95947265625,137.16064453125)"/>
<path d="M0 0 C0.99 0 1.98 0 3 0 C2.67 0.99 2.34 1.98 2 3 C1.34 3 0.68 3 0 3 C0 2.01 0 1.02 0 0 Z " fill="#0F0F0F" transform="translate(509,0)"/>
</svg>
